<?xml version="1.0" encoding="utf-8"?>
<!-- Generator: Adobe Illustrator 22.0.0, SVG Export Plug-In . SVG Version: 6.00 Build 0)  -->
<svg version="1.1" id="Camada_1" xmlns="http://www.w3.org/2000/svg" xmlns:xlink="http://www.w3.org/1999/xlink" x="0px" y="0px"
	 viewBox="0 0 402.4 189" style="enable-background:new 0 0 402.4 189;" xml:space="preserve">
<style type="text/css">
	.st0{fill:#DBAC2C;}
	.st1{fill:#C47F17;}
	.st2{fill:#685348;}
	.st3{fill:#A48A7B;}
	.st4{fill:#634E42;}
	.st5{fill:#CBBBA0;}
	.st6{fill:none;stroke:#634E42;stroke-width:2.2334;stroke-miterlimit:10;}
</style>
<g>
	<path class="st0" d="M136.9,47.9c0-6,2.1-10.6,6.2-13.9c4.2-3.4,10.5-5,18.9-5c5.5,0,10.3,0.5,14.2,1.6V46
		c-4.2-1.3-8.3-1.9-12.5-1.9c-4,0-6.7,0.5-7.9,1.5c-1.2,0.9-1.8,2.2-1.8,4v37.7c0,3.6,2.8,5.4,8.4,5.4c5.7,0,10.4-0.6,14-1.7v15.1
		c-4,1.1-8.9,1.7-14.7,1.7c-8.4,0-14.6-1.6-18.8-4.9c-4-3.3-6.1-7.9-6.1-13.9V47.9z"/>
	<path class="st0" d="M209.3,58.6c0-2.8-1.6-4.3-4.7-4.3c-3.1,0-4.7,1.4-4.7,4.3v31.2c0,2.8,1.6,4.3,4.7,4.3c3.1,0,4.7-1.4,4.7-4.3
		V58.6z M183.2,58c0-5.7,1.8-10.1,5.3-13.2c3.6-3.2,8.9-4.8,16.1-4.8c7.1,0,12.4,1.6,15.9,4.8c3.6,3.1,5.4,7.5,5.4,13.2v32.3
		c0,5.7-1.8,10.1-5.4,13.3c-3.5,3.1-8.8,4.7-15.9,4.7c-7.1,0-12.5-1.6-16.1-4.7c-3.5-3.2-5.3-7.7-5.3-13.3V58z"/>
	<path class="st0" d="M236.8,40.3c0-12.6,6.7-18.9,20-18.9c1.7,0,3.8,0.2,6.2,0.6v13c-1.2-0.1-2.3-0.2-3.4-0.2
		c-3.8,0-5.7,1.8-5.7,5.4v1h9.1v13.2h-9.1v52.9h-17.1V54.3h-6.4V41.1h6.4V40.3z"/>
	<path class="st0" d="M271.9,40.3c0-12.6,6.7-18.9,20-18.9c1.7,0,3.8,0.2,6.2,0.6v13c-1.2-0.1-2.3-0.2-3.4-0.2
		c-3.8,0-5.7,1.8-5.7,5.4v1h9.1v13.2H289v52.9h-17.1V54.3h-6.4V41.1h6.4V40.3z"/>
	<path class="st0" d="M301,88.4V58c0-5.7,1.8-10.1,5.3-13.2c3.5-3.2,8.8-4.8,15.9-4.8c13.7,0,20.6,6,20.6,18v22.8h-25.5V87
		c0,2.2,0.6,3.8,1.8,4.8c1.3,0.9,4,1.3,8.2,1.3c4.3,0,8.9-0.7,13.9-2.2v14.8c-5.2,1.4-10.9,2.1-16.8,2.1
		C308.8,107.9,301,101.4,301,88.4z M317.3,67.9h9.9v-9.6c0-2.8-1.6-4.3-4.9-4.3s-4.9,1.4-4.9,4.3V67.9z"/>
	<path class="st0" d="M348.5,88.4V58c0-5.7,1.8-10.1,5.3-13.2c3.5-3.2,8.8-4.8,15.9-4.8c13.7,0,20.6,6,20.6,18v22.8h-25.5V87
		c0,2.2,0.6,3.8,1.8,4.8c1.3,0.9,4,1.3,8.2,1.3c4.3,0,8.9-0.7,13.9-2.2v14.8c-5.2,1.4-10.9,2.1-16.8,2.1
		C356.3,107.9,348.5,101.4,348.5,88.4z M364.8,67.9h9.9v-9.6c0-2.8-1.6-4.3-4.9-4.3c-3.3,0-4.9,1.4-4.9,4.3V67.9z"/>
</g>
<path class="st1" d="M164,133.5c0-4.3-2.9-6.4-8.8-6.4h-9.3V166h9.3c5.8,0,8.8-2.2,8.8-6.5V133.5z M139.4,122.7h16.2
	c4.9,0,8.6,1,11.2,2.9c2.5,1.9,3.8,4.5,3.8,7.8v26.1c0,3.4-1.2,6-3.7,7.9c-2.5,1.9-6.1,2.9-11.1,2.9h-16.4V122.7z"/>
<path class="st1" d="M181.3,160.1v-19.7c0-3.4,1.2-6,3.7-8c2.5-2,6.3-3.1,11.3-3.1c5,0,8.8,1,11.2,3.1c2.5,2,3.7,4.7,3.7,8v12.3
	h-23.4v7.2c0,2.1,0.9,3.7,2.6,4.8c1.7,1,4.4,1.6,8,1.6c3.6,0,7.4-0.4,11.2-1.3v4.7c-3.1,0.8-6.7,1.1-11,1.1
	C187.1,170.8,181.3,167.2,181.3,160.1z M187.7,148.6h17.1v-8.2c0-4.4-2.9-6.7-8.6-6.7c-5.7,0-8.6,2.2-8.6,6.7V148.6z"/>
<path class="st1" d="M222.3,119.3h6.5v51.1h-6.5V119.3z"/>
<path class="st1" d="M244.8,125.5c-2.6,0-4-1.1-4-3.3c0-2.2,1.3-3.3,4-3.3c2.7,0,4.1,1.1,4.1,3.3
	C248.9,124.4,247.5,125.5,244.8,125.5z M241.6,130.3h6.5v40.1h-6.5V130.3z"/>
<path class="st1" d="M281.9,130h6.6l-11.6,40.4h-9.2L256.1,130h6.7l5.1,18.5l4.5,18.3C274.2,159,277.4,146.7,281.9,130z"/>
<path class="st1" d="M295.5,160.1v-19.7c0-3.4,1.2-6,3.7-8c2.5-2,6.3-3.1,11.3-3.1c5,0,8.8,1,11.2,3.1c2.5,2,3.7,4.7,3.7,8v12.3
	h-23.4v7.2c0,2.1,0.9,3.7,2.6,4.8c1.7,1,4.4,1.6,8,1.6c3.6,0,7.4-0.4,11.2-1.3v4.7c-3.1,0.8-6.7,1.1-11,1.1
	C301.3,170.8,295.5,167.2,295.5,160.1z M301.9,148.6h17.1v-8.2c0-4.4-2.9-6.7-8.6-6.7c-5.7,0-8.6,2.2-8.6,6.7V148.6z"/>
<path class="st1" d="M353.5,129.8h2.3v4.8h-3.1c-2.2,0-4.2,0.4-6,1.3c-0.6,0.3-1.8,0.9-3.6,1.9v32.5h-6.5V130h6.3v3.1
	c0.2-0.1,0.6-0.4,1.4-0.8c0.8-0.4,1.3-0.7,1.4-0.7c0.2-0.1,0.6-0.3,1.2-0.6c0.7-0.3,1.2-0.4,1.5-0.5c0.4-0.1,0.9-0.2,1.5-0.4
	C350.7,130,351.9,129.8,353.5,129.8z"/>
<path class="st1" d="M383.9,130h6.5L376,181h-6.3l2.9-10.6h-3.2L358,130h6.6l5.5,20.1l4.1,16.7c1.2-5.6,2.6-11.2,4.1-16.7L383.9,130
	z"/>
<g>
	
		<rect x="26.7" y="5.8" transform="matrix(0.9967 -8.106264e-02 8.106264e-02 0.9967 -1.354 5.5866)" class="st2" width="82.8" height="27.4"/>
	<polygon class="st3" points="118.8,180.3 44.6,186.4 18.8,37.2 120.3,29 	"/>
	
		<rect x="11.3" y="21.4" transform="matrix(0.9967 -8.106264e-02 8.106264e-02 0.9967 -2.2981 5.7028)" class="st4" width="115.6" height="19.5"/>
	
		<ellipse transform="matrix(0.9967 -8.106258e-02 8.106258e-02 0.9967 -8.5256 6.4639)" class="st2" cx="75.3" cy="108.2" rx="33.4" ry="33.4"/>
	<polygon class="st2" points="119.4,117.5 34.1,125.6 29.5,99.1 119.7,91.7 	"/>
	
		<ellipse transform="matrix(0.9967 -8.106263e-02 8.106263e-02 0.9967 -8.5256 6.4639)" class="st5" cx="75.3" cy="108.2" rx="25.4" ry="25.4"/>
	<path class="st6" d="M62,93.1c-13.2,8.6-10.4,28.2,2.9,35.1"/>
	
		<ellipse transform="matrix(0.9967 -8.106264e-02 8.106264e-02 0.9967 -8.7694 5.4289)" class="st6" cx="62.5" cy="110.7" rx="4.7" ry="6.3"/>
	<g>
		<path class="st6" d="M72.6,124.8c-0.1-3.7-0.7-7.5-1.6-11.1c-0.8-3.3-4.9-15.7,1.1-16.6"/>
		<line class="st6" x1="70.4" y1="109.4" x2="74" y2="108.1"/>
	</g>
	<g>
		<path class="st6" d="M78.2,124.3c-0.1-3.7-0.7-7.5-1.6-11.1c-0.8-3.3-4.9-15.7,1.1-16.6"/>
		<line class="st6" x1="76" y1="108.9" x2="79.6" y2="107.7"/>
	</g>
	<path class="st6" d="M88.9,115c-3,0-4.5-3.8-5.4-6.2c-0.9-2.1-2-5.9,1.2-6.3c1-0.1,2,0.4,2.7,1.1c0.3,0.3,0.5,0.6,0.7,1
		c0.4,1.2-0.3,2.5-1.4,3.2s-2.4,0.8-3.6,0.9c-0.9,0.1-1.7,0.1-2.6,0.2"/>
	<path class="st6" d="M97.7,114.2c-3,0-4.5-3.8-5.4-6.2c-0.9-2.1-2-5.9,1.2-6.3c1-0.1,2,0.4,2.7,1.1c0.3,0.3,0.5,0.6,0.7,1
		c0.4,1.2-0.3,2.5-1.4,3.2s-2.4,0.8-3.6,0.9c-0.9,0.1-1.7,0.1-2.6,0.2"/>
</g>
</svg>
